<svg xmlns="http://www.w3.org/2000/svg" version="1.1" xmlns:xlink="http://www.w3.org/1999/xlink" xmlns:svgjs="http://svgjs.dev/svgjs" width="1000" height="1000" viewBox="0 0 1000 1000"><rect width="1000" height="1000" fill="#ffffff"></rect><g transform="matrix(0.7,0,0,0.7,149.57578013973523,387.5759425364434)"><svg viewBox="0 0 396 127" data-background-color="#ffffff" preserveAspectRatio="xMidYMid meet" height="320" width="1000" xmlns="http://www.w3.org/2000/svg" xmlns:xlink="http://www.w3.org/1999/xlink"><defs></defs><g id="tight-bounds" transform="matrix(1,0,0,1,0.23998723523550325,0.24042543692718255)"><svg viewBox="0 0 395.52 126.51914912614562" height="126.51914912614562" width="395.52"><g><svg viewBox="0 0 570.9318325459496 182.62997993210104" height="126.51914912614562" width="395.52"><g><rect width="5.058966076203937" height="182.62997993210104" x="157.10949977811234" y="0" fill="#ff5c40" opacity="1" stroke-width="0" stroke="transparent" fill-opacity="1" class="rect-o-0" data-fill-palette-color="primary" rx="1%" id="o-0" data-palette-color="#ff5c40"></rect></g><g transform="matrix(1,0,0,1,175.41183254594964,0.4543034326669044)"><svg viewBox="0 0 395.52 181.72137306676723" height="181.72137306676723" width="395.52"><g><svg viewBox="0 0 395.52 181.72137306676723" height="181.72137306676723" width="395.52"><g><svg viewBox="0 0 395.52 181.72137306676723" height="181.72137306676723" width="395.52"><g transform="matrix(1,0,0,1,0,0)"><svg width="395.52" viewBox="2.049999713897705 -36.45000076293945 265.0999755859375 118.25" height="181.72137306676723" data-palette-color="#ff5c40"><svg></svg><svg></svg><svg></svg><g class="undefined-text-0" data-fill-palette-color="primary" id="text-0"><path d="M3.5-36.45h7.35l8.6 23.1c0.333 0.867 0.633 1.723 0.9 2.57 0.267 0.853 0.533 1.797 0.8 2.83v0c0.267-1.033 0.517-1.96 0.75-2.78 0.233-0.813 0.517-1.637 0.85-2.47v0l8.55-23.25h6.6v36.45h-5.05v-26.05c0-0.6 0.027-1.183 0.08-1.75 0.047-0.567 0.087-1.183 0.12-1.85v0c-0.2 0.533-0.417 1.083-0.65 1.65-0.233 0.567-0.45 1.15-0.65 1.75v0l-9.6 26.3h-3l-9.75-26.5c-0.2-0.533-0.407-1.083-0.62-1.65-0.22-0.567-0.413-1.083-0.58-1.55v0c0.067 0.6 0.11 1.173 0.13 1.72 0.013 0.553 0.02 1.113 0.02 1.68v0 26.25h-4.15v-33.2zM43.25-36.45h5.85l8.2 14.05 7.75-14.05h4.7l-10.5 18.75v17.7h-5.15v-17.7z" data-fill-palette-color="primary" fill="#ff5c40" opacity="1"></path><path d="M4.1 7.4l-0.7-3.25h20.4v3.75h-14.55v12.1h11.5v3.75h-11.5v16.85h-5.15zM35.6 4.15h4.75l12.65 36.45h-5.6l-4.1-12.1h-11.75l-4.15 12.1h-4.5zM42.05 24.8l-4.6-14-4.65 14zM57.2 4.15h7.35l8.6 23.1c0.333 0.867 0.633 1.723 0.9 2.57 0.267 0.853 0.533 1.797 0.8 2.83v0c0.267-1.033 0.517-1.96 0.75-2.78 0.233-0.813 0.517-1.637 0.85-2.47v0l8.55-23.25h6.6v36.45h-5.05v-26.05c0-0.6 0.027-1.183 0.08-1.75 0.047-0.567 0.087-1.183 0.12-1.85v0c-0.2 0.533-0.417 1.083-0.65 1.65-0.233 0.567-0.45 1.15-0.65 1.75v0l-9.6 26.3h-3l-9.75-26.5c-0.2-0.533-0.407-1.083-0.62-1.65-0.22-0.567-0.413-1.083-0.58-1.55v0c0.067 0.6 0.11 1.173 0.13 1.72 0.013 0.553 0.02 1.113 0.02 1.68v0 26.25h-4.15v-33.2zM99.05 4.15v0h5.8v36.45h-5.1v-33.2c0-0.033-0.057-0.293-0.17-0.78-0.12-0.48-0.23-0.987-0.33-1.52-0.1-0.533-0.167-0.85-0.2-0.95zM113.1 7.4l-0.7-3.25h5.8v32.7h15.1v3.75h-20.2zM135.25 4.15h5.85l8.2 14.05 7.75-14.05h4.7l-10.5 18.75v17.7h-5.15v-17.7z" data-fill-palette-color="primary" fill="#ff5c40" opacity="1"></path><path d="M18.8 81.8v0c-2.867 0-5.35-0.493-7.45-1.48-2.1-0.98-3.84-2.337-5.22-4.07-1.387-1.733-2.413-3.7-3.08-5.9-0.667-2.2-1-4.483-1-6.85v0c0-2.533 0.367-4.96 1.1-7.28 0.733-2.313 1.827-4.37 3.28-6.17 1.447-1.8 3.237-3.227 5.37-4.28 2.133-1.047 4.6-1.57 7.4-1.57v0c1.167 0 2.45 0.14 3.85 0.42 1.4 0.287 2.75 0.703 4.05 1.25 1.3 0.553 2.367 1.297 3.2 2.23v0l-2.85 3.25c-0.933-1.067-2.2-1.893-3.8-2.48-1.6-0.58-3.1-0.87-4.5-0.87v0c-1.933 0-3.617 0.433-5.05 1.3-1.433 0.867-2.633 2.033-3.6 3.5-0.967 1.467-1.69 3.1-2.17 4.9-0.487 1.8-0.73 3.65-0.73 5.55v0c0 3 0.477 5.59 1.43 7.77 0.947 2.187 2.287 3.863 4.02 5.03 1.733 1.167 3.783 1.75 6.15 1.75v0c1.4 0 2.91-0.2 4.53-0.6 1.613-0.4 3.287-1.033 5.02-1.9v0l1.65 3.05c-1.033 0.733-2.217 1.35-3.55 1.85-1.333 0.5-2.69 0.893-4.07 1.18-1.387 0.28-2.713 0.42-3.98 0.42zM48.95 81.75v0c-2.7 0-5.073-0.5-7.12-1.5-2.053-1-3.763-2.367-5.13-4.1-1.367-1.733-2.39-3.727-3.07-5.98-0.687-2.247-1.03-4.637-1.03-7.17v0c0-2.533 0.343-4.927 1.03-7.18 0.68-2.247 1.697-4.247 3.05-6 1.347-1.747 3.053-3.113 5.12-4.1 2.067-0.98 4.467-1.47 7.2-1.47v0c2.767 0 5.177 0.49 7.23 1.47 2.047 0.987 3.753 2.347 5.12 4.08 1.367 1.733 2.393 3.733 3.08 6 0.68 2.267 1.02 4.683 1.02 7.25v0c0 2.533-0.35 4.923-1.05 7.17-0.7 2.253-1.733 4.247-3.1 5.98-1.367 1.733-3.073 3.09-5.12 4.07-2.053 0.987-4.463 1.48-7.23 1.48zM49.05 78.05v0c2.1 0 3.85-0.443 5.25-1.33 1.4-0.88 2.527-2.053 3.38-3.52 0.847-1.467 1.453-3.083 1.82-4.85 0.367-1.767 0.55-3.533 0.55-5.3v0c0-1.767-0.183-3.533-0.55-5.3-0.367-1.767-0.973-3.383-1.82-4.85-0.853-1.467-1.987-2.65-3.4-3.55-1.42-0.9-3.163-1.35-5.23-1.35v0c-2.067 0-3.807 0.44-5.22 1.32-1.42 0.887-2.547 2.063-3.38 3.53-0.833 1.467-1.44 3.083-1.82 4.85-0.387 1.767-0.58 3.533-0.58 5.3v0c0 1.767 0.193 3.533 0.58 5.3 0.38 1.767 0.987 3.39 1.82 4.87 0.833 1.487 1.96 2.67 3.38 3.55 1.413 0.887 3.153 1.33 5.22 1.33zM85.8 81.75v0c-2.7 0-5.073-0.5-7.12-1.5-2.053-1-3.763-2.367-5.13-4.1-1.367-1.733-2.39-3.727-3.07-5.98-0.687-2.247-1.03-4.637-1.03-7.17v0c0-2.533 0.343-4.927 1.03-7.18 0.68-2.247 1.697-4.247 3.05-6 1.347-1.747 3.053-3.113 5.12-4.1 2.067-0.98 4.467-1.47 7.2-1.47v0c2.767 0 5.177 0.49 7.23 1.47 2.047 0.987 3.753 2.347 5.12 4.08 1.367 1.733 2.393 3.733 3.08 6 0.68 2.267 1.02 4.683 1.02 7.25v0c0 2.533-0.35 4.923-1.05 7.17-0.7 2.253-1.733 4.247-3.1 5.98-1.367 1.733-3.073 3.09-5.12 4.07-2.053 0.987-4.463 1.48-7.23 1.48zM85.9 78.05v0c2.1 0 3.85-0.443 5.25-1.33 1.4-0.88 2.527-2.053 3.38-3.52 0.847-1.467 1.453-3.083 1.82-4.85 0.367-1.767 0.55-3.533 0.55-5.3v0c0-1.767-0.183-3.533-0.55-5.3-0.367-1.767-0.973-3.383-1.82-4.85-0.853-1.467-1.987-2.65-3.4-3.55-1.42-0.9-3.163-1.35-5.23-1.35v0c-2.067 0-3.807 0.44-5.22 1.32-1.42 0.887-2.547 2.063-3.38 3.53-0.833 1.467-1.44 3.083-1.82 4.85-0.387 1.767-0.58 3.533-0.58 5.3v0c0 1.767 0.193 3.533 0.58 5.3 0.38 1.767 0.987 3.39 1.82 4.87 0.833 1.487 1.96 2.67 3.38 3.55 1.413 0.887 3.153 1.33 5.22 1.33zM108.4 48l-0.7-3.25h5.8v16.3l14-16.3h5.15l-13.8 16.15 14.75 20.3h-6.25l-13.85-18.85v18.85h-5.1zM160.4 53.25v0c0 1.267-0.267 2.473-0.8 3.62-0.533 1.153-1.273 2.13-2.22 2.93-0.953 0.8-2.097 1.317-3.43 1.55v0c1.667 0.233 3.1 0.8 4.3 1.7 1.2 0.9 2.133 2.033 2.8 3.4 0.667 1.367 1 2.883 1 4.55v0c0 2.1-0.4 3.823-1.2 5.17-0.8 1.353-1.867 2.397-3.2 3.13-1.333 0.733-2.84 1.233-4.52 1.5-1.687 0.267-3.397 0.4-5.13 0.4v0h-10.5v-33.2c0-0.033-0.057-0.293-0.17-0.78-0.12-0.48-0.23-0.987-0.33-1.52-0.1-0.533-0.167-0.85-0.2-0.95v0h12.35c1.433 0 2.817 0.123 4.15 0.37 1.333 0.253 2.533 0.697 3.6 1.33 1.067 0.633 1.917 1.49 2.55 2.57 0.633 1.087 0.95 2.497 0.95 4.23zM155 53.5v0c0-1.267-0.273-2.26-0.82-2.98-0.553-0.713-1.287-1.23-2.2-1.55-0.92-0.313-1.93-0.47-3.03-0.47v0h-6.3v11.15h5.3c2.133 0 3.843-0.467 5.13-1.4 1.28-0.933 1.92-2.517 1.92-4.75zM156.6 70.25v0c0-1.667-0.423-3-1.27-4-0.853-1-1.953-1.727-3.3-2.18-1.353-0.447-2.747-0.67-4.18-0.67v0h-5.2v14.05h5.5c1.667 0 3.133-0.217 4.4-0.65 1.267-0.433 2.26-1.177 2.98-2.23 0.713-1.047 1.07-2.487 1.07-4.32zM182.5 81.75v0c-2.7 0-5.073-0.5-7.12-1.5-2.053-1-3.763-2.367-5.13-4.1-1.367-1.733-2.39-3.727-3.07-5.98-0.687-2.247-1.03-4.637-1.03-7.17v0c0-2.533 0.343-4.927 1.03-7.18 0.68-2.247 1.697-4.247 3.05-6 1.347-1.747 3.053-3.113 5.12-4.1 2.067-0.98 4.467-1.47 7.2-1.47v0c2.767 0 5.177 0.49 7.23 1.47 2.047 0.987 3.753 2.347 5.12 4.08 1.367 1.733 2.393 3.733 3.08 6 0.68 2.267 1.02 4.683 1.02 7.25v0c0 2.533-0.35 4.923-1.05 7.17-0.7 2.253-1.733 4.247-3.1 5.98-1.367 1.733-3.073 3.09-5.12 4.07-2.053 0.987-4.463 1.48-7.23 1.48zM182.6 78.05v0c2.1 0 3.85-0.443 5.25-1.33 1.4-0.88 2.527-2.053 3.38-3.52 0.847-1.467 1.453-3.083 1.82-4.85 0.367-1.767 0.55-3.533 0.55-5.3v0c0-1.767-0.183-3.533-0.55-5.3-0.367-1.767-0.973-3.383-1.82-4.85-0.853-1.467-1.987-2.65-3.4-3.55-1.42-0.9-3.163-1.35-5.23-1.35v0c-2.067 0-3.807 0.44-5.22 1.32-1.42 0.887-2.547 2.063-3.38 3.53-0.833 1.467-1.44 3.083-1.82 4.85-0.387 1.767-0.58 3.533-0.58 5.3v0c0 1.767 0.193 3.533 0.58 5.3 0.38 1.767 0.987 3.39 1.82 4.87 0.833 1.487 1.96 2.67 3.38 3.55 1.413 0.887 3.153 1.33 5.22 1.33zM219.35 81.75v0c-2.7 0-5.073-0.5-7.12-1.5-2.053-1-3.763-2.367-5.13-4.1-1.367-1.733-2.39-3.727-3.07-5.98-0.687-2.247-1.03-4.637-1.03-7.17v0c0-2.533 0.343-4.927 1.03-7.18 0.68-2.247 1.697-4.247 3.05-6 1.347-1.747 3.053-3.113 5.12-4.1 2.067-0.98 4.467-1.47 7.2-1.47v0c2.767 0 5.177 0.49 7.23 1.47 2.047 0.987 3.753 2.347 5.12 4.08 1.367 1.733 2.393 3.733 3.08 6 0.68 2.267 1.02 4.683 1.02 7.25v0c0 2.533-0.35 4.923-1.05 7.17-0.7 2.253-1.733 4.247-3.1 5.98-1.367 1.733-3.073 3.09-5.12 4.07-2.053 0.987-4.463 1.48-7.23 1.48zM219.45 78.05v0c2.1 0 3.85-0.443 5.25-1.33 1.4-0.88 2.527-2.053 3.38-3.52 0.847-1.467 1.453-3.083 1.82-4.85 0.367-1.767 0.55-3.533 0.55-5.3v0c0-1.767-0.183-3.533-0.55-5.3-0.367-1.767-0.973-3.383-1.82-4.85-0.853-1.467-1.987-2.65-3.4-3.55-1.42-0.9-3.163-1.35-5.23-1.35v0c-2.067 0-3.807 0.44-5.22 1.32-1.42 0.887-2.547 2.063-3.38 3.53-0.833 1.467-1.44 3.083-1.82 4.85-0.387 1.767-0.58 3.533-0.58 5.3v0c0 1.767 0.193 3.533 0.58 5.3 0.38 1.767 0.987 3.39 1.82 4.87 0.833 1.487 1.96 2.67 3.38 3.55 1.413 0.887 3.153 1.33 5.22 1.33zM241.95 48l-0.7-3.25h5.8v16.3l14-16.3h5.15l-13.8 16.15 14.75 20.3h-6.25l-13.85-18.85v18.85h-5.1z" data-fill-palette-color="primary" fill="#ff5c40" opacity="1"></path></g></svg></g></svg></g></svg></g></svg></g><g transform="matrix(1,0,0,1,0,0.4543034326669044)"><svg viewBox="0 0 143.86613308647898 181.72137306676723" height="181.72137306676723" width="143.86613308647898"><g><svg xmlns="http://www.w3.org/2000/svg" xmlns:xlink="http://www.w3.org/1999/xlink" version="1.1" x="0" y="0" viewBox="2.5 0 19.000446319580078 24" style="enable-background:new 0 0 24 24;" xml:space="preserve" height="181.72137306676723" width="143.86613308647898" class="icon-icon-0" data-fill-palette-color="accent" id="icon-0"><g fill="#5dd8a1" data-fill-palette-color="accent"><g fill="#5dd8a1" data-fill-palette-color="accent"><path d="M9.503 11.711c0.022 0.57 0.152 1.117 0.345 1.638-0.522-0.194-1.069-0.323-1.639-0.345l-2.857-2.857c-0.195-0.195-0.512-0.195-0.707 0s-0.195 0.512 0 0.707l3 3C7.739 13.947 7.866 14 7.999 14c1.157 0 2.244 0.451 3.061 1.268l0.093 0.093-6.485 5.765c-0.207 0.184-0.226 0.5-0.042 0.706C4.725 21.943 4.862 22 5 22c0.118 0 0.237-0.042 0.332-0.126l6.53-5.804 5.784 5.784C17.744 21.951 17.872 22 18 22s0.256-0.049 0.353-0.145c0.195-0.195 0.195-0.512 0-0.707l-5.743-5.743 1.68-1.493c0.512 0.376 1.122 0.588 1.768 0.588 0.801 0 1.554-0.312 2.121-0.878 0.557-0.557 1.025-1.465 1.221-2.369 0.237-1.096 0.055-2.012-0.514-2.581-0.569-0.569-1.485-0.752-2.581-0.514-0.904 0.196-1.811 0.663-2.369 1.221-1.037 1.037-1.149 2.649-0.347 3.817l-1.688 1.5-0.134-0.134c-0.818-0.818-1.268-1.905-1.268-3.061 0-0.133-0.052-0.26-0.146-0.354l-3-3c-0.195-0.195-0.512-0.195-0.707 0s-0.195 0.512 0 0.707L9.503 11.711zM14.643 10.085c0.595-0.594 1.697-1.022 2.557-1.022 0.406 0 0.759 0.096 0.979 0.314 0.316 0.315 0.405 0.921 0.244 1.662-0.155 0.716-0.528 1.452-0.951 1.874-0.756 0.756-2.073 0.756-2.829 0C13.863 12.133 13.863 10.865 14.643 10.085zM21.487 6.438c-0.003-0.023-0.007-0.044-0.013-0.066-0.023-0.084-0.06-0.163-0.119-0.223 0 0 0-0.001-0.001-0.001-1.113-1.113-1.113-4.18 0-5.293 0.143-0.143 0.186-0.358 0.108-0.545C21.385 0.122 21.202 0 21 0H5.721C4.005 0 2.5 1.402 2.5 3v18c0 1.738 1.144 3 2.721 3H21c0.276 0 0.5-0.224 0.5-0.5v-17C21.5 6.478 21.49 6.459 21.487 6.438zM3.5 3c0-1.047 1.059-2 2.221-2H20.05c-0.288 0.581-0.452 1.28-0.506 2H5.5C5.224 3 5 3.224 5 3.5S5.224 4 5.5 4h14.044c0.054 0.72 0.219 1.419 0.506 2H5.721C4.559 6 3.5 5.047 3.5 4V3zM20.5 23H5.221C4.032 23 3.5 21.996 3.5 21V6.125C4.088 6.659 4.878 7 5.721 7H20.5V23z" fill="#5dd8a1" data-fill-palette-color="accent"></path></g></g></svg></g></svg></g></svg></g></svg><rect width="395.52" height="126.51914912614562" fill="none" stroke="none" visibility="hidden"></rect></g></svg></g></svg>